<svg width="145" height="145" viewBox="0 0 145 145" fill="none" xmlns="http://www.w3.org/2000/svg">
<rect width="145" height="145" fill="url(#paint0_linear_28_9)"/>
<g filter="url(#filter0_d_28_9)">
<path d="M34.0654 108C29.3334 108 26.9675 105.425 26.9675 100.275C26.9675 95.9827 28.8481 89.7288 32.6094 81.513C33.7014 79.3057 34.9148 76.6693 36.2494 73.6036C37.7054 70.538 38.9187 67.595 39.8894 64.7746C40.9814 61.8316 41.5274 59.4404 41.5274 57.601C41.5274 55.8843 40.9207 55.0259 39.7074 55.0259C38.2514 55.0259 36.7954 55.9456 35.3394 57.785C33.8834 59.5017 32.5488 61.4637 31.3354 63.671C30.2434 65.8782 29.3334 67.6563 28.6054 69.0052C26.7855 72.5613 24.6621 76.4853 22.2355 80.7772C19.8088 85.0691 17.5642 88.8092 15.5015 91.9974H15.3195C15.0768 91.9974 14.7735 91.8748 14.4095 91.6295C14.0455 91.2617 13.9242 91.0164 14.0455 90.8938C16.3508 87.3377 18.5955 83.5363 20.7795 79.4896C23.0848 75.443 25.0261 71.7029 26.6035 68.2694C27.9381 65.6943 29.3334 63.0579 30.7894 60.3601C32.3668 57.5397 34.1868 55.2098 36.2494 53.3705C38.6761 51.2858 41.1027 50.2435 43.5294 50.2435C45.2281 50.2435 46.6234 50.7953 47.7154 51.899C48.8074 52.88 49.3534 54.4128 49.3534 56.4974C49.3534 56.9879 49.2927 57.4784 49.1714 57.9689C49.1714 58.4594 49.1107 59.0112 48.9894 59.6244C48.504 61.9542 47.6547 64.8359 46.4414 68.2694C45.3494 71.5803 43.8327 75.5656 41.8914 80.2254C39.7074 85.3756 38.0694 89.7288 36.9774 93.285C36.0068 96.7185 35.5214 99.4162 35.5214 101.378C35.5214 103.708 36.3101 104.873 37.8874 104.873C39.5861 104.873 42.3161 103.279 46.0774 100.091C49.3534 97.1477 51.8407 94.266 53.5394 91.4456C55.3594 88.5026 56.512 86.418 56.9974 85.1917C56.876 84.456 56.7547 83.4136 56.6334 82.0648C56.512 80.7159 56.4514 79.2444 56.4514 77.6503C56.4514 76.3014 56.4514 74.9525 56.4514 73.6036C56.5727 72.2547 56.694 71.0285 56.8154 69.9249C57.422 63.5484 58.9993 58.766 61.5473 55.5777C64.0953 52.2668 66.4006 50.6114 68.4633 50.6114C71.0113 50.6114 72.2853 52.3282 72.2853 55.7617C72.2853 57.7237 71.7393 60.2988 70.6473 63.487C69.5553 66.5527 68.2206 69.6796 66.6433 72.8679C65.1873 76.0561 63.792 78.8765 62.4573 81.329C61.244 83.6589 60.3947 85.1304 59.9093 85.7435C59.9093 85.7435 60.0913 86.4793 60.4553 87.9508C60.9407 89.2997 61.608 90.6485 62.4573 91.9974C63.428 93.3463 64.702 94.0207 66.2793 94.0207C68.0993 94.0207 69.8586 92.9784 71.5573 90.8938C73.3773 88.8092 75.076 86.3567 76.6533 83.5363C78.2306 80.7159 79.6259 78.2021 80.8393 75.9948C81.2033 75.6269 81.5066 75.443 81.7493 75.443C82.1133 75.443 82.3559 75.6269 82.4773 75.9948C82.7199 76.2401 82.7199 76.6079 82.4773 77.0984C80.6573 80.2867 78.9586 83.3523 77.3813 86.2953C75.8039 89.2383 74.1053 91.6295 72.2853 93.4689C70.4653 95.1857 68.2813 96.044 65.7333 96.044C63.428 96.044 61.608 95.1244 60.2733 93.285C59.06 91.323 58.332 89.7288 58.0893 88.5026C56.876 90.8325 54.9954 93.5302 52.4474 96.5959C50.0207 99.6615 47.1694 102.359 43.8934 104.689C40.7387 106.896 37.4628 108 34.0654 108Z" fill="white"/>
<path d="M96.1926 108C91.0966 108 88.5486 105.118 88.5486 99.3549C88.5486 97.1477 88.9733 94.5112 89.8226 91.4456C90.672 88.38 92.0066 85.0078 93.8266 81.329C94.7973 79.1218 96.132 76.4853 97.8306 73.4197C99.5293 70.2314 101.046 67.1045 102.381 64.0389C103.837 60.9732 104.565 58.5207 104.565 56.6813C104.565 54.842 103.594 53.9223 101.653 53.9223C100.803 53.9223 99.7113 54.1675 98.3766 54.658C97.0419 55.0259 95.222 55.5164 92.9166 56.1295C91.946 58.582 90.3686 62.0155 88.1846 66.4301C86.122 70.7219 83.8167 75.1364 81.2687 79.6736C78.7207 84.2107 76.294 88.1347 73.9887 91.4456C73.9887 91.4456 73.928 91.5069 73.8067 91.6295C73.8067 91.6295 73.6854 91.6295 73.4427 91.6295C73.2 91.6295 72.836 91.5682 72.3507 91.4456C71.9867 91.2003 71.8654 91.0164 71.9867 90.8938C73.928 88.0734 75.93 84.8238 77.9927 81.1451C80.0553 77.3437 81.9967 73.6036 83.8167 69.9249C85.758 66.2461 87.3353 63.1192 88.5486 60.544C89.8833 57.8463 90.6113 56.2522 90.7326 55.7617C88.9126 55.1485 87.4566 53.7383 86.3647 51.5311C85.394 49.2012 84.9087 46.8713 84.9087 44.5415C84.9087 42.4568 85.394 40.6788 86.3647 39.2073C87.3353 37.7358 88.7913 37 90.7326 37C92.1886 37 93.1593 37.7971 93.6446 39.3912C94.2513 40.8627 94.5546 42.6408 94.5546 44.7254C94.5546 47.4231 94.2513 50.1209 93.6446 52.8187C93.6446 52.8187 94.312 52.696 95.6466 52.4508C96.9813 52.2055 98.5586 52.0216 100.379 51.899C102.199 51.6537 103.776 51.5311 105.111 51.5311C109.115 51.5311 111.117 53.4931 111.117 57.4171C111.117 59.8696 110.449 63.0579 109.115 66.9819C107.78 70.7832 106.081 75.1978 104.019 80.2254C99.8933 90.158 97.8306 97.1477 97.8306 101.194C97.8306 103.647 98.6193 104.873 100.197 104.873C102.138 104.873 104.868 103.279 108.387 100.091C111.905 96.9024 115.121 92.9171 118.033 88.1347C121.066 83.2297 124.767 76.6693 129.134 68.4534C129.256 68.2081 129.438 68.0855 129.681 68.0855C130.044 68.0855 130.348 68.2694 130.59 68.6373C130.954 68.8826 131.076 69.1278 130.955 69.3731C124.281 82.1261 118.457 91.7522 113.483 98.2513C108.508 104.75 102.745 108 96.1926 108Z" fill="white"/>
</g>
<defs>
<filter id="filter0_d_28_9" x="10" y="37" width="125" height="79" filterUnits="userSpaceOnUse" color-interpolation-filters="sRGB">
<feFlood flood-opacity="0" result="BackgroundImageFix"/>
<feColorMatrix in="SourceAlpha" type="matrix" values="0 0 0 0 0 0 0 0 0 0 0 0 0 0 0 0 0 0 127 0" result="hardAlpha"/>
<feOffset dy="4"/>
<feGaussianBlur stdDeviation="2"/>
<feComposite in2="hardAlpha" operator="out"/>
<feColorMatrix type="matrix" values="0 0 0 0 0 0 0 0 0 0 0 0 0 0 0 0 0 0 0.25 0"/>
<feBlend mode="normal" in2="BackgroundImageFix" result="effect1_dropShadow_28_9"/>
<feBlend mode="normal" in="SourceGraphic" in2="effect1_dropShadow_28_9" result="shape"/>
</filter>
<linearGradient id="paint0_linear_28_9" x1="72.5" y1="0" x2="72.5" y2="145" gradientUnits="userSpaceOnUse">
<stop offset="0.322917" stop-color="#3D0D0D"/>
<stop offset="1" stop-color="#521313"/>
</linearGradient>
</defs>
</svg>
